<svg viewBox="0 0 120 120" xmlns="http://www.w3.org/2000/svg"><defs><radialGradient id="sph" cx="38%" cy="32%" r="72%"><stop offset="0%" stop-color="#fff6de"/><stop offset="55%" stop-color="#d9b24e"/><stop offset="100%" stop-color="#5c4410"/></radialGradient><radialGradient id="glow" cx="50%" cy="50%" r="50%"><stop offset="60%" stop-color="rgba(201,162,39,0)"/><stop offset="100%" stop-color="rgba(201,162,39,.35)"/></radialGradient></defs><circle cx="60.0" cy="60.0" r="52" fill="url(#sph)"/><polygon points="17.1,89.3 17.9,89.3 13.1,80.2 12.2,80.2" fill="rgb(94, 72, 20)" fill-opacity="0.50" stroke="#3a2c0a" stroke-width="0.35" stroke-opacity="0.55"/><polygon points="12.2,39.8 13.1,39.8 17.9,30.7 17.1,30.7" fill="rgb(224, 191, 105)" fill-opacity="0.50" stroke="#3a2c0a" stroke-width="0.35" stroke-opacity="0.55"/><polygon points="102.1,89.3 102.9,89.3 107.8,80.2 106.9,80.2" fill="rgb(72, 54, 15)" fill-opacity="0.50" stroke="#3a2c0a" stroke-width="0.35" stroke-opacity="0.55"/><polygon points="106.9,39.8 107.8,39.8 102.9,30.7 102.1,30.7" fill="rgb(68, 51, 14)" fill-opacity="0.50" stroke="#3a2c0a" stroke-width="0.35" stroke-opacity="0.55"/><polygon points="74.9,11.6 78.5,11.6 68.8,8.8 67.1,8.8" fill="rgb(221, 188, 100)" fill-opacity="0.50" stroke="#3a2c0a" stroke-width="0.35" stroke-opacity="0.55"/><polygon points="67.1,111.2 68.8,111.2 78.5,108.4 74.9,108.4" fill="rgb(76, 58, 16)" fill-opacity="0.50" stroke="#3a2c0a" stroke-width="0.35" stroke-opacity="0.55"/><polygon points="41.5,11.6 45.1,11.6 52.9,8.8 51.2,8.8" fill="rgb(243, 224, 173)" fill-opacity="0.50" stroke="#3a2c0a" stroke-width="0.35" stroke-opacity="0.55"/><polygon points="51.2,111.2 52.9,111.2 45.1,108.4 41.5,108.4" fill="rgb(104, 81, 22)" fill-opacity="0.50" stroke="#3a2c0a" stroke-width="0.35" stroke-opacity="0.55"/><polygon points="41.0,108.4 43.5,108.4 35.6,103.7 31.8,103.7" fill="rgb(96, 74, 20)" fill-opacity="0.50" stroke="#3a2c0a" stroke-width="0.35" stroke-opacity="0.55"/><polygon points="31.8,16.3 35.6,16.3 43.5,11.6 41.0,11.6" fill="rgb(219, 185, 96)" fill-opacity="0.50" stroke="#3a2c0a" stroke-width="0.35" stroke-opacity="0.55"/><polygon points="76.5,108.4 79.0,108.4 88.2,103.7 84.4,103.7" fill="rgb(71, 53, 15)" fill-opacity="0.50" stroke="#3a2c0a" stroke-width="0.35" stroke-opacity="0.55"/><polygon points="84.4,16.3 88.2,16.3 79.0,11.6 76.5,11.6" fill="rgb(159, 125, 36)" fill-opacity="0.50" stroke="#3a2c0a" stroke-width="0.35" stroke-opacity="0.55"/><polygon points="23.7,97.2 25.5,97.2 19.1,89.3 17.0,89.3" fill="rgb(87, 67, 18)" fill-opacity="0.50" stroke="#3a2c0a" stroke-width="0.35" stroke-opacity="0.55"/><polygon points="17.0,30.7 19.1,30.7 25.5,22.8 23.7,22.8" fill="rgb(220, 186, 97)" fill-opacity="0.50" stroke="#3a2c0a" stroke-width="0.35" stroke-opacity="0.55"/><polygon points="94.5,97.2 96.3,97.2 103.0,89.3 100.9,89.3" fill="rgb(116, 91, 25)" fill-opacity="0.50" stroke="#3a2c0a" stroke-width="0.35" stroke-opacity="0.55"/><polygon points="100.9,30.7 103.0,30.7 96.3,22.8 94.5,22.8" fill="rgb(94, 72, 20)" fill-opacity="0.50" stroke="#3a2c0a" stroke-width="0.35" stroke-opacity="0.55"/><polygon points="23.7,22.8 26.5,22.8 33.9,16.3 31.8,16.3" fill="rgb(255, 252, 238)" fill-opacity="0.50" stroke="#b9962f" stroke-width="0.35" stroke-opacity="0.55"/><polygon points="93.5,22.8 96.3,22.8 88.2,16.3 86.1,16.3" fill="rgb(141, 110, 31)" fill-opacity="0.50" stroke="#3a2c0a" stroke-width="0.35" stroke-opacity="0.55"/><polygon points="31.8,103.7 33.9,103.7 26.5,97.2 23.7,97.2" fill="rgb(75, 56, 15)" fill-opacity="0.50" stroke="#3a2c0a" stroke-width="0.35" stroke-opacity="0.55"/><polygon points="86.1,103.7 88.2,103.7 96.3,97.2 93.5,97.2" fill="rgb(114, 89, 25)" fill-opacity="0.50" stroke="#3a2c0a" stroke-width="0.35" stroke-opacity="0.55"/><polygon points="108.5,49.7 110.9,49.7 107.8,39.8 105.6,39.8" fill="rgb(117, 91, 25)" fill-opacity="1.00" stroke="#3a2c0a" stroke-width="0.35" stroke-opacity="0.55"/><polygon points="105.6,80.2 107.8,80.2 110.9,70.3 108.5,70.3" fill="rgb(100, 77, 21)" fill-opacity="1.00" stroke="#3a2c0a" stroke-width="0.35" stroke-opacity="0.55"/><polygon points="9.1,49.7 11.5,49.7 14.4,39.8 12.2,39.8" fill="rgb(207, 171, 75)" fill-opacity="1.00" stroke="#3a2c0a" stroke-width="0.35" stroke-opacity="0.55"/><polygon points="12.2,80.2 14.4,80.2 11.5,70.3 9.1,70.3" fill="rgb(170, 134, 39)" fill-opacity="1.00" stroke="#3a2c0a" stroke-width="0.35" stroke-opacity="0.55"/><polygon points="9.4,70.3 12.3,70.3 11.4,60.0 8.4,60.0" fill="rgb(212, 177, 84)" fill-opacity="1.00" stroke="#3a2c0a" stroke-width="0.35" stroke-opacity="0.55"/><polygon points="8.4,60.0 11.4,60.0 12.3,49.7 9.4,49.7" fill="rgb(197, 158, 56)" fill-opacity="1.00" stroke="#3a2c0a" stroke-width="0.35" stroke-opacity="0.55"/><polygon points="107.7,70.3 110.6,70.3 111.6,60.0 108.6,60.0" fill="rgb(105, 82, 23)" fill-opacity="1.00" stroke="#3a2c0a" stroke-width="0.35" stroke-opacity="0.55"/><polygon points="108.6,60.0 111.6,60.0 110.6,49.7 107.7,49.7" fill="rgb(105, 82, 23)" fill-opacity="1.00" stroke="#3a2c0a" stroke-width="0.35" stroke-opacity="0.55"/><polygon points="45.1,11.6 60.0,11.6 60.0,8.8 52.9,8.8" fill="rgb(227, 195, 111)" fill-opacity="1.00" stroke="#3a2c0a" stroke-width="0.35" stroke-opacity="0.55"/><polygon points="60.0,11.6 74.9,11.6 67.1,8.8 60.0,8.8" fill="rgb(225, 193, 107)" fill-opacity="1.00" stroke="#3a2c0a" stroke-width="0.35" stroke-opacity="0.55"/><polygon points="52.9,111.2 60.0,111.2 60.0,108.4 45.1,108.4" fill="rgb(72, 54, 15)" fill-opacity="1.00" stroke="#3a2c0a" stroke-width="0.35" stroke-opacity="0.55"/><polygon points="60.0,111.2 67.1,111.2 74.9,108.4 60.0,108.4" fill="rgb(86, 66, 18)" fill-opacity="1.00" stroke="#3a2c0a" stroke-width="0.35" stroke-opacity="0.55"/><polygon points="98.1,89.3 102.1,89.3 106.9,80.2 102.5,80.2" fill="rgb(99, 76, 21)" fill-opacity="1.00" stroke="#3a2c0a" stroke-width="0.35" stroke-opacity="0.55"/><polygon points="102.5,39.8 106.9,39.8 102.1,30.7 98.1,30.7" fill="rgb(101, 78, 22)" fill-opacity="1.00" stroke="#3a2c0a" stroke-width="0.35" stroke-opacity="0.55"/><polygon points="17.9,89.3 21.9,89.3 17.5,80.2 13.1,80.2" fill="rgb(124, 97, 27)" fill-opacity="1.00" stroke="#3a2c0a" stroke-width="0.35" stroke-opacity="0.55"/><polygon points="13.1,39.8 17.5,39.8 21.9,30.7 17.9,30.7" fill="rgb(243, 224, 173)" fill-opacity="1.00" stroke="#3a2c0a" stroke-width="0.35" stroke-opacity="0.55"/><polygon points="43.5,108.4 50.5,108.4 45.9,103.7 35.6,103.7" fill="rgb(70, 52, 14)" fill-opacity="1.00" stroke="#3a2c0a" stroke-width="0.35" stroke-opacity="0.55"/><polygon points="35.6,16.3 45.9,16.3 50.5,11.6 43.5,11.6" fill="rgb(255, 252, 238)" fill-opacity="1.00" stroke="#b9962f" stroke-width="0.35" stroke-opacity="0.55"/><polygon points="69.5,108.4 76.5,108.4 84.4,103.7 74.1,103.7" fill="rgb(88, 68, 19)" fill-opacity="1.00" stroke="#3a2c0a" stroke-width="0.35" stroke-opacity="0.55"/><polygon points="74.1,16.3 84.4,16.3 76.5,11.6 69.5,11.6" fill="rgb(227, 195, 111)" fill-opacity="1.00" stroke="#3a2c0a" stroke-width="0.35" stroke-opacity="0.55"/><polygon points="26.5,22.8 34.3,22.8 40.1,16.3 33.9,16.3" fill="rgb(255, 246, 222)" fill-opacity="1.00" stroke="#3a2c0a" stroke-width="0.35" stroke-opacity="0.55"/><polygon points="33.9,103.7 40.1,103.7 34.3,97.2 26.5,97.2" fill="rgb(81, 61, 17)" fill-opacity="1.00" stroke="#3a2c0a" stroke-width="0.35" stroke-opacity="0.55"/><polygon points="85.7,22.8 93.5,22.8 86.1,16.3 79.9,16.3" fill="rgb(176, 139, 40)" fill-opacity="1.00" stroke="#3a2c0a" stroke-width="0.35" stroke-opacity="0.55"/><polygon points="79.9,103.7 86.1,103.7 93.5,97.2 85.7,97.2" fill="rgb(92, 70, 19)" fill-opacity="1.00" stroke="#3a2c0a" stroke-width="0.35" stroke-opacity="0.55"/><polygon points="25.5,97.2 30.6,97.2 25.2,89.3 19.1,89.3" fill="rgb(98, 75, 21)" fill-opacity="1.00" stroke="#3a2c0a" stroke-width="0.35" stroke-opacity="0.55"/><polygon points="19.1,30.7 25.2,30.7 30.6,22.8 25.5,22.8" fill="rgb(236, 211, 146)" fill-opacity="1.00" stroke="#3a2c0a" stroke-width="0.35" stroke-opacity="0.55"/><polygon points="89.4,97.2 94.5,97.2 100.9,89.3 94.8,89.3" fill="rgb(71, 53, 14)" fill-opacity="1.00" stroke="#3a2c0a" stroke-width="0.35" stroke-opacity="0.55"/><polygon points="94.8,30.7 100.9,30.7 94.5,22.8 89.4,22.8" fill="rgb(169, 133, 39)" fill-opacity="1.00" stroke="#3a2c0a" stroke-width="0.35" stroke-opacity="0.55"/><polygon points="11.5,49.7 17.0,49.7 19.5,39.8 14.4,39.8" fill="rgb(240, 218, 161)" fill-opacity="1.00" stroke="#3a2c0a" stroke-width="0.35" stroke-opacity="0.55"/><polygon points="100.5,80.2 105.6,80.2 108.5,70.3 103.0,70.3" fill="rgb(82, 62, 17)" fill-opacity="1.00" stroke="#3a2c0a" stroke-width="0.35" stroke-opacity="0.55"/><polygon points="14.4,80.2 19.5,80.2 17.0,70.3 11.5,70.3" fill="rgb(210, 174, 79)" fill-opacity="1.00" stroke="#3a2c0a" stroke-width="0.35" stroke-opacity="0.55"/><polygon points="103.0,49.7 108.5,49.7 105.6,39.8 100.5,39.8" fill="rgb(99, 76, 21)" fill-opacity="1.00" stroke="#3a2c0a" stroke-width="0.35" stroke-opacity="0.55"/><polygon points="60.0,108.4 69.5,108.4 74.1,103.7 60.0,103.7" fill="rgb(98, 76, 21)" fill-opacity="1.00" stroke="#3a2c0a" stroke-width="0.35" stroke-opacity="0.55"/><polygon points="50.5,108.4 60.0,108.4 60.0,103.7 45.9,103.7" fill="rgb(92, 71, 20)" fill-opacity="1.00" stroke="#3a2c0a" stroke-width="0.35" stroke-opacity="0.55"/><polygon points="60.0,16.3 74.1,16.3 69.5,11.6 60.0,11.6" fill="rgb(228, 195, 111)" fill-opacity="1.00" stroke="#3a2c0a" stroke-width="0.35" stroke-opacity="0.55"/><polygon points="45.9,16.3 60.0,16.3 60.0,11.6 50.5,11.6" fill="rgb(255, 252, 238)" fill-opacity="1.00" stroke="#b9962f" stroke-width="0.35" stroke-opacity="0.55"/><polygon points="101.9,70.3 107.7,70.3 108.6,60.0 102.8,60.0" fill="rgb(70, 52, 14)" fill-opacity="1.00" stroke="#3a2c0a" stroke-width="0.35" stroke-opacity="0.55"/><polygon points="102.8,60.0 108.6,60.0 107.7,49.7 101.9,49.7" fill="rgb(95, 73, 20)" fill-opacity="1.00" stroke="#3a2c0a" stroke-width="0.35" stroke-opacity="0.55"/><polygon points="12.3,70.3 18.1,70.3 17.2,60.0 11.4,60.0" fill="rgb(218, 184, 94)" fill-opacity="1.00" stroke="#3a2c0a" stroke-width="0.35" stroke-opacity="0.55"/><polygon points="11.4,60.0 17.2,60.0 18.1,49.7 12.3,49.7" fill="rgb(237, 213, 150)" fill-opacity="1.00" stroke="#3a2c0a" stroke-width="0.35" stroke-opacity="0.55"/><polygon points="21.9,89.3 28.6,89.3 25.0,80.2 17.5,80.2" fill="rgb(181, 143, 42)" fill-opacity="1.00" stroke="#3a2c0a" stroke-width="0.35" stroke-opacity="0.55"/><polygon points="17.5,39.8 25.0,39.8 28.6,30.7 21.9,30.7" fill="rgb(255, 246, 222)" fill-opacity="1.00" stroke="#3a2c0a" stroke-width="0.35" stroke-opacity="0.55"/><polygon points="91.4,89.3 98.1,89.3 102.5,80.2 95.0,80.2" fill="rgb(89, 68, 19)" fill-opacity="1.00" stroke="#3a2c0a" stroke-width="0.35" stroke-opacity="0.55"/><polygon points="95.0,39.8 102.5,39.8 98.1,30.7 91.4,30.7" fill="rgb(162, 128, 37)" fill-opacity="1.00" stroke="#3a2c0a" stroke-width="0.35" stroke-opacity="0.55"/><polygon points="73.9,22.8 85.7,22.8 79.9,16.3 70.8,16.3" fill="rgb(202, 165, 66)" fill-opacity="1.00" stroke="#3a2c0a" stroke-width="0.35" stroke-opacity="0.55"/><polygon points="34.3,22.8 46.1,22.8 49.2,16.3 40.1,16.3" fill="rgb(251, 239, 207)" fill-opacity="1.00" stroke="#3a2c0a" stroke-width="0.35" stroke-opacity="0.55"/><polygon points="70.8,103.7 79.9,103.7 85.7,97.2 73.9,97.2" fill="rgb(73, 55, 15)" fill-opacity="1.00" stroke="#3a2c0a" stroke-width="0.35" stroke-opacity="0.55"/><polygon points="40.1,103.7 49.2,103.7 46.1,97.2 34.3,97.2" fill="rgb(104, 80, 22)" fill-opacity="1.00" stroke="#3a2c0a" stroke-width="0.35" stroke-opacity="0.55"/><polygon points="30.6,97.2 38.7,97.2 34.7,89.3 25.2,89.3" fill="rgb(106, 82, 23)" fill-opacity="1.00" stroke="#3a2c0a" stroke-width="0.35" stroke-opacity="0.55"/><polygon points="25.2,30.7 34.7,30.7 38.7,22.8 30.6,22.8" fill="rgb(255, 252, 238)" fill-opacity="1.00" stroke="#b9962f" stroke-width="0.35" stroke-opacity="0.55"/><polygon points="81.3,97.2 89.4,97.2 94.8,89.3 85.3,89.3" fill="rgb(124, 97, 27)" fill-opacity="1.00" stroke="#3a2c0a" stroke-width="0.35" stroke-opacity="0.55"/><polygon points="85.3,30.7 94.8,30.7 89.4,22.8 81.3,22.8" fill="rgb(171, 135, 39)" fill-opacity="1.00" stroke="#3a2c0a" stroke-width="0.35" stroke-opacity="0.55"/><polygon points="92.8,80.2 100.5,80.2 103.0,70.3 94.9,70.3" fill="rgb(107, 83, 23)" fill-opacity="1.00" stroke="#3a2c0a" stroke-width="0.35" stroke-opacity="0.55"/><polygon points="94.9,49.7 103.0,49.7 100.5,39.8 92.8,39.8" fill="rgb(122, 96, 27)" fill-opacity="1.00" stroke="#3a2c0a" stroke-width="0.35" stroke-opacity="0.55"/><polygon points="19.5,80.2 27.2,80.2 25.1,70.3 17.0,70.3" fill="rgb(213, 177, 84)" fill-opacity="1.00" stroke="#3a2c0a" stroke-width="0.35" stroke-opacity="0.55"/><polygon points="17.0,49.7 25.1,49.7 27.2,39.8 19.5,39.8" fill="rgb(255, 246, 222)" fill-opacity="1.00" stroke="#3a2c0a" stroke-width="0.35" stroke-opacity="0.55"/><polygon points="46.1,22.8 60.0,22.8 60.0,16.3 49.2,16.3" fill="rgb(255, 252, 238)" fill-opacity="1.00" stroke="#b9962f" stroke-width="0.35" stroke-opacity="0.55"/><polygon points="60.0,22.8 73.9,22.8 70.8,16.3 60.0,16.3" fill="rgb(250, 237, 202)" fill-opacity="1.00" stroke="#3a2c0a" stroke-width="0.35" stroke-opacity="0.55"/><polygon points="49.2,103.7 60.0,103.7 60.0,97.2 46.1,97.2" fill="rgb(122, 95, 26)" fill-opacity="1.00" stroke="#3a2c0a" stroke-width="0.35" stroke-opacity="0.55"/><polygon points="60.0,103.7 70.8,103.7 73.9,97.2 60.0,97.2" fill="rgb(72, 54, 15)" fill-opacity="1.00" stroke="#3a2c0a" stroke-width="0.35" stroke-opacity="0.55"/><polygon points="93.8,70.3 101.9,70.3 102.8,60.0 94.5,60.0" fill="rgb(100, 77, 21)" fill-opacity="1.00" stroke="#3a2c0a" stroke-width="0.35" stroke-opacity="0.55"/><polygon points="18.1,70.3 26.2,70.3 25.5,60.0 17.2,60.0" fill="rgb(237, 213, 150)" fill-opacity="1.00" stroke="#3a2c0a" stroke-width="0.35" stroke-opacity="0.55"/><polygon points="94.5,60.0 102.8,60.0 101.9,49.7 93.8,49.7" fill="rgb(156, 122, 35)" fill-opacity="1.00" stroke="#3a2c0a" stroke-width="0.35" stroke-opacity="0.55"/><polygon points="17.2,60.0 25.5,60.0 26.2,49.7 18.1,49.7" fill="rgb(254, 244, 217)" fill-opacity="1.00" stroke="#3a2c0a" stroke-width="0.35" stroke-opacity="0.55"/><polygon points="28.6,89.3 37.7,89.3 35.1,80.2 25.0,80.2" fill="rgb(170, 134, 39)" fill-opacity="1.00" stroke="#3a2c0a" stroke-width="0.35" stroke-opacity="0.55"/><polygon points="25.0,39.8 35.1,39.8 37.7,30.7 28.6,30.7" fill="rgb(255, 246, 222)" fill-opacity="1.00" stroke="#3a2c0a" stroke-width="0.35" stroke-opacity="0.55"/><polygon points="82.3,89.3 91.4,89.3 95.0,80.2 84.9,80.2" fill="rgb(104, 80, 22)" fill-opacity="1.00" stroke="#3a2c0a" stroke-width="0.35" stroke-opacity="0.55"/><polygon points="84.9,39.8 95.0,39.8 91.4,30.7 82.3,30.7" fill="rgb(194, 155, 51)" fill-opacity="1.00" stroke="#3a2c0a" stroke-width="0.35" stroke-opacity="0.55"/><polygon points="38.7,97.2 48.8,97.2 46.7,89.3 34.7,89.3" fill="rgb(117, 92, 25)" fill-opacity="1.00" stroke="#3a2c0a" stroke-width="0.35" stroke-opacity="0.55"/><polygon points="34.7,30.7 46.7,30.7 48.8,22.8 38.7,22.8" fill="rgb(255, 252, 238)" fill-opacity="1.00" stroke="#b9962f" stroke-width="0.35" stroke-opacity="0.55"/><polygon points="71.2,97.2 81.3,97.2 85.3,89.3 73.3,89.3" fill="rgb(90, 69, 19)" fill-opacity="1.00" stroke="#3a2c0a" stroke-width="0.35" stroke-opacity="0.55"/><polygon points="73.3,30.7 85.3,30.7 81.3,22.8 71.2,22.8" fill="rgb(216, 182, 91)" fill-opacity="1.00" stroke="#3a2c0a" stroke-width="0.35" stroke-opacity="0.55"/><polygon points="48.8,97.2 60.0,97.2 60.0,89.3 46.7,89.3" fill="rgb(143, 113, 32)" fill-opacity="1.00" stroke="#3a2c0a" stroke-width="0.35" stroke-opacity="0.55"/><polygon points="46.7,30.7 60.0,30.7 60.0,22.8 48.8,22.8" fill="rgb(255, 252, 238)" fill-opacity="1.00" stroke="#b9962f" stroke-width="0.35" stroke-opacity="0.55"/><polygon points="60.0,97.2 71.2,97.2 73.3,89.3 60.0,89.3" fill="rgb(106, 82, 23)" fill-opacity="1.00" stroke="#3a2c0a" stroke-width="0.35" stroke-opacity="0.55"/><polygon points="60.0,30.7 73.3,30.7 71.2,22.8 60.0,22.8" fill="rgb(248, 233, 194)" fill-opacity="1.00" stroke="#3a2c0a" stroke-width="0.35" stroke-opacity="0.55"/><polygon points="25.1,49.7 35.4,49.7 36.9,39.8 27.2,39.8" fill="rgb(241, 219, 163)" fill-opacity="1.00" stroke="#3a2c0a" stroke-width="0.35" stroke-opacity="0.55"/><polygon points="27.2,80.2 36.9,80.2 35.4,70.3 25.1,70.3" fill="rgb(196, 157, 54)" fill-opacity="1.00" stroke="#3a2c0a" stroke-width="0.35" stroke-opacity="0.55"/><polygon points="84.6,49.7 94.9,49.7 92.8,39.8 83.1,39.8" fill="rgb(155, 122, 35)" fill-opacity="1.00" stroke="#3a2c0a" stroke-width="0.35" stroke-opacity="0.55"/><polygon points="83.1,80.2 92.8,80.2 94.9,70.3 84.6,70.3" fill="rgb(123, 96, 27)" fill-opacity="1.00" stroke="#3a2c0a" stroke-width="0.35" stroke-opacity="0.55"/><polygon points="71.6,89.3 82.3,89.3 84.9,80.2 72.9,80.2" fill="rgb(111, 86, 24)" fill-opacity="1.00" stroke="#3a2c0a" stroke-width="0.35" stroke-opacity="0.55"/><polygon points="72.9,39.8 84.9,39.8 82.3,30.7 71.6,30.7" fill="rgb(205, 169, 72)" fill-opacity="1.00" stroke="#3a2c0a" stroke-width="0.35" stroke-opacity="0.55"/><polygon points="37.7,89.3 48.4,89.3 47.1,80.2 35.1,80.2" fill="rgb(158, 125, 36)" fill-opacity="1.00" stroke="#3a2c0a" stroke-width="0.35" stroke-opacity="0.55"/><polygon points="35.1,39.8 47.1,39.8 48.4,30.7 37.7,30.7" fill="rgb(237, 212, 148)" fill-opacity="1.00" stroke="#3a2c0a" stroke-width="0.35" stroke-opacity="0.55"/><polygon points="26.2,70.3 36.3,70.3 35.8,60.0 25.5,60.0" fill="rgb(218, 183, 93)" fill-opacity="1.00" stroke="#3a2c0a" stroke-width="0.35" stroke-opacity="0.55"/><polygon points="25.5,60.0 35.8,60.0 36.3,49.7 26.2,49.7" fill="rgb(232, 203, 127)" fill-opacity="1.00" stroke="#3a2c0a" stroke-width="0.35" stroke-opacity="0.55"/><polygon points="83.7,70.3 93.8,70.3 94.5,60.0 84.2,60.0" fill="rgb(111, 86, 24)" fill-opacity="1.00" stroke="#3a2c0a" stroke-width="0.35" stroke-opacity="0.55"/><polygon points="84.2,60.0 94.5,60.0 93.8,49.7 83.7,49.7" fill="rgb(189, 149, 44)" fill-opacity="1.00" stroke="#3a2c0a" stroke-width="0.35" stroke-opacity="0.55"/><polygon points="48.4,89.3 60.0,89.3 60.0,80.2 47.1,80.2" fill="rgb(165, 130, 38)" fill-opacity="1.00" stroke="#3a2c0a" stroke-width="0.35" stroke-opacity="0.55"/><polygon points="47.1,39.8 60.0,39.8 60.0,30.7 48.4,30.7" fill="rgb(255, 246, 222)" fill-opacity="1.00" stroke="#3a2c0a" stroke-width="0.35" stroke-opacity="0.55"/><polygon points="60.0,89.3 71.6,89.3 72.9,80.2 60.0,80.2" fill="rgb(112, 87, 24)" fill-opacity="1.00" stroke="#3a2c0a" stroke-width="0.35" stroke-opacity="0.55"/><polygon points="60.0,39.8 72.9,39.8 71.6,30.7 60.0,30.7" fill="rgb(222, 189, 102)" fill-opacity="1.00" stroke="#3a2c0a" stroke-width="0.35" stroke-opacity="0.55"/><polygon points="35.4,49.7 47.3,49.7 48.1,39.8 36.9,39.8" fill="rgb(241, 220, 166)" fill-opacity="1.00" stroke="#3a2c0a" stroke-width="0.35" stroke-opacity="0.55"/><polygon points="36.9,80.2 48.1,80.2 47.3,70.3 35.4,70.3" fill="rgb(225, 192, 107)" fill-opacity="1.00" stroke="#3a2c0a" stroke-width="0.35" stroke-opacity="0.55"/><polygon points="72.7,49.7 84.6,49.7 83.1,39.8 71.9,39.8" fill="rgb(222, 188, 101)" fill-opacity="1.00" stroke="#3a2c0a" stroke-width="0.35" stroke-opacity="0.55"/><polygon points="71.9,80.2 83.1,80.2 84.6,70.3 72.7,70.3" fill="rgb(123, 96, 27)" fill-opacity="1.00" stroke="#3a2c0a" stroke-width="0.35" stroke-opacity="0.55"/><polygon points="72.2,70.3 83.7,70.3 84.2,60.0 72.4,60.0" fill="rgb(192, 152, 47)" fill-opacity="1.00" stroke="#3a2c0a" stroke-width="0.35" stroke-opacity="0.55"/><polygon points="72.4,60.0 84.2,60.0 83.7,49.7 72.2,49.7" fill="rgb(194, 155, 52)" fill-opacity="1.00" stroke="#3a2c0a" stroke-width="0.35" stroke-opacity="0.55"/><polygon points="36.3,70.3 47.8,70.3 47.6,60.0 35.8,60.0" fill="rgb(231, 201, 124)" fill-opacity="1.00" stroke="#3a2c0a" stroke-width="0.35" stroke-opacity="0.55"/><polygon points="35.8,60.0 47.6,60.0 47.8,49.7 36.3,49.7" fill="rgb(255, 252, 238)" fill-opacity="1.00" stroke="#b9962f" stroke-width="0.35" stroke-opacity="0.55"/><polygon points="60.0,49.7 72.7,49.7 71.9,39.8 60.0,39.8" fill="rgb(255, 252, 238)" fill-opacity="1.00" stroke="#b9962f" stroke-width="0.35" stroke-opacity="0.55"/><polygon points="47.3,49.7 60.0,49.7 60.0,39.8 48.1,39.8" fill="rgb(255, 252, 238)" fill-opacity="1.00" stroke="#b9962f" stroke-width="0.35" stroke-opacity="0.55"/><polygon points="60.0,80.2 71.9,80.2 72.7,70.3 60.0,70.3" fill="rgb(168, 132, 38)" fill-opacity="1.00" stroke="#3a2c0a" stroke-width="0.35" stroke-opacity="0.55"/><polygon points="48.1,80.2 60.0,80.2 60.0,70.3 47.3,70.3" fill="rgb(166, 131, 38)" fill-opacity="1.00" stroke="#3a2c0a" stroke-width="0.35" stroke-opacity="0.55"/><polygon points="60.0,70.3 72.2,70.3 72.4,60.0 60.0,60.0" fill="rgb(195, 156, 53)" fill-opacity="1.00" stroke="#3a2c0a" stroke-width="0.35" stroke-opacity="0.55"/><polygon points="60.0,60.0 72.4,60.0 72.2,49.7 60.0,49.7" fill="rgb(219, 186, 97)" fill-opacity="1.00" stroke="#3a2c0a" stroke-width="0.35" stroke-opacity="0.55"/><polygon points="47.8,70.3 60.0,70.3 60.0,60.0 47.6,60.0" fill="rgb(218, 184, 94)" fill-opacity="1.00" stroke="#3a2c0a" stroke-width="0.35" stroke-opacity="0.55"/><polygon points="47.6,60.0 60.0,60.0 60.0,49.7 47.8,49.7" fill="rgb(228, 197, 114)" fill-opacity="1.00" stroke="#3a2c0a" stroke-width="0.35" stroke-opacity="0.55"/><ellipse cx="43.36" cy="40.239999999999995" rx="15.6" ry="10.4" fill="#fffbef" opacity="0.35"/><ellipse cx="44.4" cy="39.2" rx="7.280000000000001" ry="4.68" fill="#ffffff" opacity="0.55"/><ellipse cx="74.56" cy="77.68" rx="26.0" ry="21.84" fill="#2a1e06" opacity="0.22"/><circle cx="60.0" cy="60.0" r="52" fill="none" stroke="#7a5f18" stroke-width="1.2" opacity="0.6"/></svg>